<svg xmlns="http://www.w3.org/2000/svg" viewBox="0 0 256 257">
  <path fill="#41D1FF" d="M255.153 37.938L134.897 252.976c-2.483 4.44-8.862 4.466-11.382.048L.875 37.958c-2.746-4.814 1.371-10.646 6.827-9.67l120.385 21.517a6.537 6.537 0 0 0 2.322-.004l117.867-21.483c5.438-.991 9.397 4.733 6.797 9.62z"/>
  <path fill="#BD34FE" d="M185.432.063L96.44 17.501a3.268 3.268 0 0 0-2.634 3.014l-5.474 92.456a3.268 3.268 0 0 0 3.997 3.378l24.777-5.718c2.318-.535 4.413 1.507 3.936 3.838l-7.361 36.047c-.495 2.426 1.782 4.5 4.151 3.78l15.146-4.849c2.372-.76 4.772 1.215 4.432 3.656l-11.59 70.115c-.686 4.165 4.602 6.003 6.878 2.673l60.97-90.837c1.948-2.898-.157-6.807-3.594-6.318l-25.536 3.723c-2.49.363-4.575-1.874-4.09-4.349l16.63-87.193c.565-2.963-2.39-5.358-5.282-4.726z"/>
</svg>
